<?xml version="1.0" standalone="no"?>
<!DOCTYPE svg PUBLIC "-//W3C//DTD SVG 20010904//EN"
 "http://www.w3.org/TR/2001/REC-SVG-20010904/DTD/svg10.dtd">
<svg version="1.0" xmlns="http://www.w3.org/2000/svg"
 width="700.000000pt" height="700.000000pt" viewBox="0 0 700.000000 700.000000"
 preserveAspectRatio="xMidYMid meet">
<metadata>
Created by potrace 1.11, written by Peter Selinger 2001-2013
</metadata>
<g transform="translate(0.000000,700.000000) scale(0.100000,-0.100000)"
fill="#000000" stroke="none">
<path d="M2058 6155 c-2 -2 -34 -6 -73 -9 -38 -4 -81 -9 -95 -11 -14 -3 -41
-7 -60 -10 -117 -19 -389 -101 -530 -159 -182 -77 -438 -219 -588 -329 l-53
-39 -205 0 c-189 0 -207 -2 -247 -22 -28 -14 -48 -33 -60 -59 -18 -36 -19
-123 -19 -2377 0 -2283 0 -2340 19 -2372 11 -18 34 -43 53 -55 l33 -23 1291
-1 c710 0 1302 -3 1316 -5 48 -9 98 -53 139 -121 121 -205 308 -314 532 -308
193 5 398 126 483 286 33 62 80 116 116 132 18 9 378 13 1340 17 l1315 5 30
23 c16 12 36 33 44 45 14 20 16 254 16 2379 l0 2357 -21 27 c-50 68 -54 69
-291 71 l-215 2 -54 38 c-62 44 -207 137 -244 157 -473 257 -859 367 -1269
361 -303 -5 -558 -67 -826 -201 -78 -40 -261 -148 -275 -164 -3 -3 -42 -33
-87 -68 l-82 -62 -63 51 c-106 85 -267 188 -393 249 -110 54 -309 127 -395
146 -175 38 -240 46 -422 49 -87 1 -159 1 -160 0z m258 -299 c351 -23 697
-176 1007 -446 l22 -19 0 -1765 c-1 -971 -3 -1767 -6 -1770 -3 -3 -43 19 -88
49 -91 59 -224 130 -311 165 -30 12 -64 26 -75 31 -100 42 -296 91 -420 104
-27 3 -66 8 -85 11 -87 13 -324 4 -455 -16 -33 -5 -78 -12 -100 -16 -226 -34
-598 -178 -866 -335 -37 -21 -71 -39 -76 -39 -6 0 -10 3420 -4 3553 1 21 166
132 314 211 311 167 621 264 902 283 50 3 91 7 93 8 1 1 15 1 30 0 15 -2 68
-6 118 -9z m2699 -10 c17 -4 68 -13 114 -22 281 -51 602 -188 908 -386 l93
-60 0 -1784 c0 -1211 -4 -1784 -10 -1784 -6 0 -21 6 -33 14 -299 190 -725 345
-1052 382 -22 2 -56 7 -75 10 -49 7 -284 7 -355 -1 -295 -30 -625 -149 -873
-312 l-90 -59 0 1773 0 1773 61 55 c70 64 219 165 327 223 155 84 350 148 537
176 87 14 385 15 448 2z m-4457 -2398 l-3 -1852 -55 1 c-30 1 -59 2 -65 2 -7
1 -10 621 -9 1844 1 1013 2 1845 3 1850 0 4 30 7 66 7 l65 0 -2 -1852z m6002
2 c0 -1226 -3 -1850 -10 -1851 -13 -1 -73 -1 -102 0 l-23 1 1 1842 c1 1014 2
1846 3 1851 1 4 30 7 66 7 l65 0 0 -1850z m-4235 -1534 c54 -4 101 -9 105 -11
3 -1 25 -6 50 -9 104 -14 289 -75 425 -141 86 -42 255 -144 255 -155 0 -7
-2029 -5 -2035 2 -7 7 192 109 300 153 117 49 286 104 365 119 14 3 52 10 85
17 76 15 96 17 225 25 58 4 107 8 109 10 2 2 7 2 10 0 3 -2 51 -7 106 -10z
m2560 0 c66 -3 134 -8 150 -11 261 -46 453 -109 690 -227 77 -38 143 -72 147
-76 5 -5 -1912 -8 -2032 -3 -20 1 -8 12 60 56 223 144 502 241 751 261 46 3
86 8 87 9 2 2 9 2 15 0 7 -2 66 -6 132 -9z m1670 -756 c0 -74 -2 -144 -6 -154
-5 -19 -35 -19 -1235 -21 l-1229 -1 -60 -24 c-120 -47 -206 -121 -268 -231
-69 -123 -148 -174 -267 -173 -45 0 -89 7 -111 16 -56 24 -116 84 -159 158
-70 119 -152 189 -272 232 l-63 22 -1220 2 c-671 1 -1226 3 -1232 3 -10 1 -13
39 -13 156 l0 155 3067 -2 3067 -3 1 -135z"/>
</g>
</svg>
